<?xml version="1.0" encoding="utf-8"?>
<!-- Generator: Adobe Illustrator 26.5.0, SVG Export Plug-In . SVG Version: 6.00 Build 0)  -->
<svg version="1.1" id="Ebene_1" xmlns="http://www.w3.org/2000/svg" xmlns:xlink="http://www.w3.org/1999/xlink" x="0px" y="0px"
	 viewBox="0 0 398 398" style="enable-background:new 0 0 398 398;" xml:space="preserve">
<style type="text/css">
	.st0{fill:none;}
	.st1{fill-rule:evenodd;clip-rule:evenodd;fill:#63616E;}
	.st2{fill-rule:evenodd;clip-rule:evenodd;fill:#FC628E;}
	.st3{fill-rule:evenodd;clip-rule:evenodd;fill:#FFFFFF;}
	.st4{fill-rule:evenodd;clip-rule:evenodd;}
	.st5{fill-rule:evenodd;clip-rule:evenodd;fill:#63616E;stroke:#63616E;stroke-width:0.21;stroke-miterlimit:10;}
</style>
<rect x="0.3" class="st0" width="398" height="398"/>
<g id="Ebene_1-2">
	<path class="st1" d="M277.8,91.4v15.7l0,0V91.4z M309.2,264.3l-94.3-0.1V217h-15.7v47.2H105V217H73.6v31.4H57.9v-47.1H105v-31.4
		h94.3v31.4H215v-31.4h94.3L309.2,264.3L309.2,264.3L309.2,264.3z M42.2,154.2v157H26.6v15.7H10.8v15.7h31.4v-15.7h314.2v15.7h31.4
		v-15.7h-15.7v-15.7h-15.7v-157h15.7v-31.4h-31.4v-15.7h-31.4V91.4h-31.4V75.7h-31.4V59.9H215V44.3h-31.4v15.7h-31.4v15.7h-31.4
		v15.7H89.4v15.7H57.9v15.7H26.5v31.4L42.2,154.2L42.2,154.2z M120.8,107.1L120.8,107.1z"/>
	<path class="st2" d="M262.1,185.6h31.4v62.8h-62.8v-62.8H262.1L262.1,185.6z M152.2,185.6h31.4v62.8h-62.8v-62.8H152.2z
		 M89.3,201.3H57.9v47.1h15.7V217H105v47.2h94.3V217H215v47.2l94.3,0.1v-94.4H215v31.4h-15.7v-31.4H105v31.4L89.3,201.3L89.3,201.3z
		"/>
	<polygon class="st3" points="262.1,248.4 262.1,185.6 230.7,185.6 230.7,248.4 	"/>
	<polygon class="st3" points="152.2,248.4 152.2,185.6 120.8,185.6 120.8,248.4 	"/>
	<polygon class="st4" points="152.2,248.4 183.6,248.4 183.6,185.6 152.2,185.6 	"/>
	<polygon class="st4" points="262.1,248.4 293.6,248.4 293.6,185.6 262.1,185.6 	"/>
	<polygon class="st5" points="120.8,107.1 89.3,107.1 89.3,122.8 120.8,122.8 120.8,107.1 152.2,107.1 152.2,91.4 120.8,91.4 	"/>
	<polygon class="st5" points="246.4,107.1 277.8,107.1 277.8,122.8 309.2,122.8 309.2,107.1 277.8,107.1 277.8,91.4 246.4,91.4 	"/>
</g>
</svg>
