<?xml version="1.0" encoding="UTF-8"?><svg id="Ebene_1" xmlns="http://www.w3.org/2000/svg" viewBox="0 0 665.87 527.12"><defs><style>.cls-1{stroke:#63616e;stroke-miterlimit:10;stroke-width:.37px;}.cls-1,.cls-2,.cls-3,.cls-4,.cls-5{fill-rule:evenodd;}.cls-1,.cls-4{fill:#63616e;}.cls-2{fill:#fc628e;}.cls-3{fill:#fff;}</style></defs><g id="Ebene_1-2"><path class="cls-4" d="M471.64,83.21v27.77h0v-27.77Zm55.49,305.46l-166.47-.24v-83.26h-27.72v83.26H166.47v-83.26h-55.49v55.49h-27.72v-83.21h83.21v-55.49h166.47v55.49h27.72v-55.49h166.47v166.71h0ZM55.49,194.19V471.64H27.77v27.72H0v27.77H55.49v-27.77H610.38v27.77h55.49v-27.77h-27.77v-27.72h-27.72V194.19h27.72v-55.49h-55.49v-27.72h-55.49v-27.77h-55.49v-27.72h-55.49V27.72h-55.49V0h-55.49V27.72h-55.44v27.77h-55.49v27.72h-55.49v27.77h-55.49v27.72H27.77v55.49h27.72ZM194.24,110.98h0v0Z"/><path class="cls-2" d="M443.91,249.68h55.49v110.98h-110.98v-110.98h55.49Zm-194.19,0h55.44v110.98h-110.93v-110.98h55.49Zm-110.98,27.77h-55.49v83.21h27.72v-55.49h55.49v83.26h166.47v-83.26h27.72v83.26l166.47,.24V221.96h-166.47v55.49h-27.72v-55.49H166.47v55.49h-27.72Z"/><polygon class="cls-3" points="443.91 360.66 443.91 249.68 388.43 249.68 388.43 360.66 443.91 360.66"/><polygon class="cls-3" points="249.73 360.66 249.73 249.68 194.24 249.68 194.24 360.66 249.73 360.66"/><polygon class="cls-5" points="249.73 360.66 305.17 360.66 305.17 249.68 249.73 249.68 249.73 360.66"/><polygon class="cls-5" points="443.91 360.66 499.4 360.66 499.4 249.68 443.91 249.68 443.91 360.66"/><polygon class="cls-1" points="194.24 110.98 138.75 110.98 138.75 138.7 194.24 138.7 194.24 110.98 249.73 110.98 249.73 83.21 194.24 83.21 194.24 110.98"/><polygon class="cls-1" points="416.15 110.98 471.64 110.98 471.64 138.7 527.12 138.7 527.12 110.98 471.64 110.98 471.64 83.21 416.15 83.21 416.15 110.98"/></g></svg>